<svg width="371" height="376" viewBox="0 0 371 376" fill="none" xmlns="http://www.w3.org/2000/svg">
<path d="M233.866 280.286L308.742 280.286C313.076 280.286 317.334 279.145 321.088 276.976C324.842 274.807 327.959 271.688 330.127 267.932L367.565 203.047C369.732 199.291 370.873 195.03 370.873 190.693C370.873 186.355 369.732 182.095 367.565 178.338L330.127 113.453C327.959 109.697 324.842 106.578 321.088 104.409C317.334 102.241 313.076 101.099 308.742 101.099L233.866 101.099C229.532 101.099 225.274 102.241 221.52 104.409C217.766 106.578 214.649 109.697 212.481 113.453L175.044 178.338C172.876 182.095 171.735 186.355 171.735 190.693C171.735 195.03 172.876 199.291 175.044 203.047L212.481 267.932C214.649 271.688 217.766 274.807 221.52 276.976C225.274 279.145 229.532 280.286 233.866 280.286V280.286Z" fill="#F0F4F6"/>
<path d="M68.7362 179.187L143.612 179.187C147.946 179.187 152.204 178.046 155.958 175.877C159.712 173.708 162.829 170.589 164.997 166.833L202.434 101.948C204.602 98.1919 205.743 93.9311 205.743 89.5937C205.743 85.2564 204.602 80.9956 202.434 77.2394L164.997 12.3544C162.829 8.59818 159.712 5.479 155.958 3.31036C152.204 1.14171 147.946 1.06286e-05 143.612 -9.06756e-06L68.7362 -1.56134e-05C64.4016 2.81327e-05 60.1434 1.14173 56.3896 3.31038C52.6357 5.47902 49.5185 8.59819 47.3512 12.3544L9.91357 77.2393C7.74627 80.9955 6.60529 85.2564 6.60529 89.5937C6.60529 93.931 7.74627 98.1919 9.91357 101.948L47.3512 166.833C49.5185 170.589 52.6357 173.708 56.3896 175.877C60.1434 178.046 64.4016 179.187 68.7362 179.187V179.187Z" fill="#F0F4F6"/>
<path d="M62.1309 376L137.006 376C141.341 376 145.599 374.858 149.353 372.69C153.107 370.521 156.224 367.402 158.391 363.646L195.829 298.761C197.996 295.004 199.137 290.744 199.137 286.406C199.137 282.069 197.996 277.808 195.829 274.052L158.391 209.167C156.224 205.411 153.107 202.292 149.353 200.123C145.599 197.954 141.341 196.813 137.006 196.812L62.1309 196.812C57.7964 196.813 53.5382 197.954 49.7843 200.123C46.0305 202.292 42.9133 205.411 40.746 209.167L3.30835 274.052C1.14104 277.808 6.90981e-05 282.069 6.87189e-05 286.406C6.83397e-05 290.744 1.14104 295.004 3.30835 298.761L40.7459 363.646C42.9133 367.402 46.0305 370.521 49.7843 372.69C53.5382 374.858 57.7964 376 62.1309 376V376Z" fill="#F0F4F6"/>
</svg>
