<svg width="512" height="344" viewBox="0 0 512 344" fill="none" xmlns="http://www.w3.org/2000/svg">
<rect width="512" height="344" fill="#FDFDFD"/>
<path fill-rule="evenodd" clip-rule="evenodd" d="M251.479 311.548C367.722 311.548 472.367 313.935 472.367 225.739C472.367 137.544 361.688 90.2555 245.446 90.2555C129.204 90.2555 41 41.3374 41 157.167C41 272.996 135.234 311.548 251.479 311.548Z" fill="#FEF5CD"/>
<path fill-rule="evenodd" clip-rule="evenodd" d="M380.843 170.356C380.843 170.356 378.935 96.8271 352.853 88.5826C326.247 80.172 297.822 80.8869 270.27 82.1316C244.282 83.3036 218.092 82.592 192.171 84.2996C163.633 86.1807 153.064 99.2355 146.771 125.536C143.323 140.238 141.41 155.258 141.061 170.356L134.697 189.374H387.198L380.843 170.356Z" fill="#076492"/>
<path fill-rule="evenodd" clip-rule="evenodd" d="M162.685 179.23V162.749C162.685 162.749 162.05 150.704 148.056 149.437C134.062 148.17 95.903 177.962 96.5386 184.3C97.1742 190.639 104.17 235.644 108.622 237.545C113.075 239.446 124.523 248.323 134.7 243.248C144.878 238.174 162.685 179.23 162.685 179.23Z" fill="#0E4158"/>
<path fill-rule="evenodd" clip-rule="evenodd" d="M354.129 179.23V162.749C354.129 162.749 354.766 150.704 368.759 149.437C382.752 148.17 420.912 177.962 420.277 184.3C419.642 190.639 412.646 235.644 408.193 237.545C403.739 239.446 392.293 248.323 382.116 243.248C371.939 238.174 354.129 179.23 354.129 179.23Z" fill="#0E4158"/>
<path fill-rule="evenodd" clip-rule="evenodd" d="M162.686 179.289C161.647 180.391 160.528 181.415 159.338 182.352C150.786 189.605 128.976 206.749 128.976 206.749H389.112L354.13 177.325L162.686 179.289Z" fill="#0E4158"/>
<path fill-rule="evenodd" clip-rule="evenodd" d="M128.976 205.854V232.054H388.934L389.11 205.854H128.976Z" fill="#094D6B"/>
<path fill-rule="evenodd" clip-rule="evenodd" d="M120.708 257.831L112.567 283.253C112.326 284.02 112.367 284.847 112.683 285.585C112.999 286.324 113.569 286.925 114.29 287.279C115.011 287.634 115.835 287.718 116.613 287.518C117.391 287.317 118.071 286.845 118.531 286.186L137.88 258.465L120.708 257.831Z" fill="#566369"/>
<path fill-rule="evenodd" clip-rule="evenodd" d="M397.345 257.831L405.487 283.253C405.727 284.02 405.685 284.846 405.369 285.584C405.053 286.323 404.483 286.923 403.762 287.277C403.041 287.632 402.218 287.716 401.44 287.516C400.663 287.316 399.982 286.844 399.522 286.186L380.173 258.465L397.345 257.831Z" fill="#566369"/>
<path fill-rule="evenodd" clip-rule="evenodd" d="M413.818 176.854C409.603 174.795 404.835 174.477 399.106 177.328C387.657 183.031 388.931 205.854 388.931 205.854V231.208H128.976V205.854C128.976 205.854 130.248 183.034 118.801 177.328C113.075 174.477 108.304 174.795 104.089 176.854C96.7733 180.428 92.9052 188.605 93.9995 196.655C95.7905 209.865 99.1792 232.765 102.265 241.984C106.717 255.296 106.717 257.831 116.257 261C124.532 263.749 230.894 261.729 258.955 261.146C287.017 261.729 393.378 263.749 401.655 261C411.194 257.831 411.194 255.297 415.647 241.984C418.73 232.765 422.119 209.865 423.912 196.655C425.003 188.605 421.135 180.428 413.818 176.854Z" fill="#076492"/>
<path fill-rule="evenodd" clip-rule="evenodd" d="M184.216 53.9012C184.216 53.9012 172.797 61.1092 172.797 69.0752C172.797 77.0411 175.462 83.8698 175.081 89.5628C174.7 95.2559 168.991 101.703 168.991 101.703H206.675C206.675 101.703 208.576 70.5943 202.489 61.1092C196.401 51.6241 188.786 51.625 184.216 53.9012Z" fill="#094D6B"/>
<path fill-rule="evenodd" clip-rule="evenodd" d="M169.371 97.5288C169.371 97.5288 160.236 96.0105 156.047 99.805C151.858 103.6 139.299 148.744 140.441 150.64C141.583 152.536 152.622 152.159 154.145 149.884C155.668 147.608 163.661 118.774 163.661 118.774L169.752 103.219" fill="#FCE273"/>
<path fill-rule="evenodd" clip-rule="evenodd" d="M253.879 185.167C253.879 185.167 271.008 182.51 272.531 188.201C274.054 193.891 259.207 193.891 256.924 193.891C254.64 193.891 253.879 185.167 253.879 185.167Z" fill="#ADBCC3"/>
<path fill-rule="evenodd" clip-rule="evenodd" d="M181.932 99.0471C181.932 99.0471 173.559 97.5288 169.371 97.5288C165.183 97.5288 161.758 100.563 161.758 107.013C161.758 113.463 170.513 180.232 170.893 183.648C171.273 187.063 178.508 205.65 201.727 211.719C224.947 217.788 253.88 197.683 253.88 197.683L233.322 160.509C233.322 160.509 221.903 111.191 219.998 105.877C218.094 100.562 216.572 99.4298 210.482 99.4298C204.391 99.4298 201.727 99.8108 195.637 99.4298C189.546 99.0487 181.932 99.0471 181.932 99.0471Z" fill="#FCE273"/>
<path fill-rule="evenodd" clip-rule="evenodd" d="M238.693 170.22C236.808 169.64 234.887 169.183 232.943 168.852C223.426 167.336 211.244 169.232 211.244 169.232C211.244 169.232 202.49 169.992 188.404 177.958C179.551 182.966 175.664 188.124 173.995 191.265C178.007 198.219 186.368 207.712 201.728 211.724C224.953 217.795 253.881 197.688 253.881 197.688L238.693 170.22Z" fill="#0B98DE"/>
<path fill-rule="evenodd" clip-rule="evenodd" d="M240.76 173.959C240.072 173.785 239.36 173.726 238.652 173.785C235.988 174.165 226.47 184.029 226.47 184.029L225.329 186.683C225.329 186.683 231.039 194.272 228.754 203.379C227.866 206.924 225.244 209.602 222.375 211.561C239.206 207.883 253.879 197.693 253.879 197.693L240.76 173.959Z" fill="#0A85C2"/>
<path fill-rule="evenodd" clip-rule="evenodd" d="M208.96 99.8067C208.96 99.8067 217.722 94.4955 222.286 98.2892C226.85 102.083 240.175 152.922 240.175 152.922L226.47 149.126L213.907 107.014L208.96 99.8067Z" fill="#FCE273"/>
<path fill-rule="evenodd" clip-rule="evenodd" d="M181.553 82.3548C181.553 82.3548 183.075 92.2184 181.934 95.2542C180.792 98.29 175.843 98.2884 175.843 98.2884C175.843 98.2884 180.411 107.773 189.548 108.152C192.11 108.286 194.652 107.631 196.83 106.274C199.009 104.917 200.718 102.925 201.727 100.565L199.826 79.324L181.553 82.3548Z" fill="#F4A376"/>
<path fill-rule="evenodd" clip-rule="evenodd" d="M179.649 74.3864C179.649 74.3864 178.887 67.18 180.791 62.2465C182.695 57.313 192.211 55.7997 195.255 63.764C198.299 71.7283 197.537 85.7683 197.537 85.7683C197.537 85.7683 196.395 92.597 188.401 91.4589C180.407 90.3207 179.268 81.5944 179.268 81.5944C179.268 81.5944 174.319 77.8015 173.938 74.7666C173.557 71.7316 177.365 70.5943 179.649 74.3864Z" fill="#F8C6AA"/>
<path fill-rule="evenodd" clip-rule="evenodd" d="M181.933 58.0751L183.834 60.3521C183.834 60.3521 192.969 57.6957 195.254 63.7656C197.54 69.8356 197.536 83.1127 198.299 92.5986C199.062 102.085 198.299 128.26 198.299 128.26H214.668C214.668 128.26 210.86 96.0121 209.337 76.2849C207.815 56.5576 200.964 48.2114 184.211 53.9003" fill="#094D6B"/>
<path fill-rule="evenodd" clip-rule="evenodd" d="M143.105 154.057C143.105 154.057 148.434 185.925 151.478 193.512C154.523 201.099 178.887 207.929 180.406 205.272C181.926 202.616 183.071 197.307 183.071 183.269C183.071 169.231 178.503 155.954 175.078 151.779C171.653 147.603 163.657 143.812 154.522 144.949C145.386 146.087 146.149 143.814 143.105 154.057Z" fill="#FAC505"/>
<path d="M194.102 117.667H182.835C182.244 117.667 181.766 118.146 181.766 118.736V142.003C181.766 142.593 182.244 143.072 182.835 143.072H194.102C194.693 143.072 195.172 142.593 195.172 142.003V118.736C195.172 118.146 194.693 117.667 194.102 117.667Z" fill="#5C6161"/>
<path fill-rule="evenodd" clip-rule="evenodd" d="M162.138 185.925C156.781 174.684 154.141 154.715 153.129 145.109C145.465 145.879 145.985 144.365 143.105 154.057C143.105 154.057 148.433 185.925 151.479 193.512C154.124 200.094 172.796 206.102 178.695 205.844C171.552 200.742 165.849 193.88 162.138 185.925Z" fill="#E6A205"/>
<path fill-rule="evenodd" clip-rule="evenodd" d="M152.241 141.913H173.177C174.319 141.913 175.461 137.367 176.985 135.466C178.459 133.87 180.057 132.394 181.765 131.051C181.817 131.922 181.817 132.794 181.765 133.664C181.66 134.123 181.503 134.569 181.298 134.993C182.373 135 191.449 132.051 192.591 131.673C193.733 131.295 194.492 132.809 193.353 134.706C192.214 136.603 192.972 138.5 190.308 141.913C187.644 145.327 181.172 148.364 177.745 148.745C174.318 149.126 168.991 151.401 159.092 153.676C149.194 155.952 141.963 157.091 140.06 154.815C138.158 152.538 138.159 147.606 143.104 146.848C143.105 146.849 149.196 141.913 152.241 141.913Z" fill="#F8C6AA"/>
<path fill-rule="evenodd" clip-rule="evenodd" d="M221.522 119.534C221.522 119.534 216.955 111.186 214.67 110.808C212.384 110.429 205.155 114.6 204.393 115.74C203.631 116.88 204.774 124.467 207.439 123.327C210.103 122.186 213.148 120.671 213.148 120.671C213.148 120.671 215.813 124.467 217.716 125.224C219.189 125.716 220.731 125.972 222.284 125.983C222.284 125.983 224.185 146.092 224.948 147.988C225.712 149.884 238.272 154.816 240.176 152.919C242.08 151.021 223.046 121.432 221.522 119.534Z" fill="#F8C6AA"/>
<path fill-rule="evenodd" clip-rule="evenodd" d="M267.961 195.031C267.961 195.031 286.994 194.272 289.278 200.342C291.561 206.413 277.478 207.171 271.388 206.411C267.623 205.928 263.921 205.038 260.347 203.757L267.961 195.031Z" fill="#ADBCC3"/>
<path fill-rule="evenodd" clip-rule="evenodd" d="M263.014 206.031C263.014 206.031 259.588 206.791 253.117 204.895C246.645 202.999 245.122 196.547 232.56 190.478C219.999 184.409 203.632 176.821 197.539 162.783C191.446 148.745 209.34 144.952 221.14 145.711C232.941 146.471 247.026 153.297 248.93 162.407C250.835 171.517 248.93 175.306 248.93 175.306C248.93 175.306 254.259 185.929 259.207 190.482C264.156 195.035 267.201 193.136 267.962 195.035C268.722 196.935 267.961 205.272 263.014 206.031Z" fill="#0B98DE"/>
<path d="M248.931 175.304C248.931 175.304 236.368 153.681 219.619 149.508" stroke="#076492" stroke-width="0.809"/>
<path d="M192.762 120.341H192.22C191.629 120.341 191.15 120.819 191.15 121.41V124.619C191.15 125.21 191.629 125.689 192.22 125.689H192.762C193.353 125.689 193.832 125.21 193.832 124.619V121.41C193.832 120.819 193.353 120.341 192.762 120.341Z" fill="#AFB8B8"/>
<path d="M188.781 117.667C188.781 117.667 183.078 97.2304 148.25 97.5288C103.351 97.9164 105.354 74.8765 105.354 74.8765" stroke="#979797" stroke-width="1.294" stroke-linecap="round" stroke-dasharray="1.29 3.88"/>
<path d="M128.14 43.8937C128.14 54.2252 121.736 60.7166 110.912 62.1597V69.5289H101.16V62.2391C93.0044 61.3588 87.0592 58.3156 82.563 53.9913L90.567 41.9746C92.7085 44.1475 95.2592 45.8748 98.0719 47.0568C100.885 48.2388 103.903 48.852 106.954 48.8611C109.847 48.8611 112.594 47.8189 112.594 45.7369C112.594 43.6549 110.461 42.6126 105.43 41.6522C97.046 40.0513 84.2416 37.9701 84.2433 24.593C84.2433 16.503 89.9611 9.05447 101.166 7.52955V0H110.923V7.68659C116.823 8.45181 122.378 10.8993 126.925 14.7368L118.692 26.1923C114.641 22.9819 109.679 21.1335 104.514 20.9108C100.704 20.9108 99.8653 22.3531 99.8653 23.7152C99.8653 25.798 101.922 26.5187 107.334 27.4792C115.717 28.9966 128.142 31.558 128.14 43.8937Z" fill="#E6A205"/>
<path d="M259.522 53.6871C259.522 58.4561 256.508 61.4514 251.415 62.1176V65.5195H246.823V62.1556C243.56 61.9121 240.476 60.5715 238.073 58.352L241.843 52.8019C243.895 54.8347 246.666 55.9766 249.555 55.9799C250.918 55.9799 252.209 55.4988 252.209 54.5384C252.209 53.578 251.205 53.0962 248.838 52.6532C244.892 51.9142 238.867 50.9538 238.867 44.7798C238.867 41.0456 241.559 37.6073 246.831 36.9039V33.4325H251.423V36.9816C254.191 37.3299 256.803 38.4578 258.954 40.2339L255.08 45.5236C253.164 44.0377 250.832 43.1852 248.409 43.0846C246.615 43.0846 246.221 43.7458 246.221 44.3781C246.221 45.3401 247.188 45.6724 249.736 46.1138C253.677 46.8113 259.523 47.9933 259.522 53.6871Z" fill="#E6A205"/>
<path d="M188.781 117.667C188.781 117.667 193.815 96.2725 213.934 96.2725C234.053 96.2725 248.793 96.8816 248.793 69.5298" stroke="#979797" stroke-width="1.294" stroke-linecap="round" stroke-dasharray="1.29 3.88"/>
</svg>
