<svg width="136" height="24" viewBox="0 0 136 24" fill="none" xmlns="http://www.w3.org/2000/svg">
<path d="M43.1486 18.6688C41.2609 18.6688 40.9398 17.7915 40.9398 16.5223V13.0876C40.9398 11.6316 40.4112 10.9783 39.3918 10.9783C37.995 10.9783 37.6552 11.7063 37.6552 13.1623V18.6688H36.447C34.7291 18.6688 34.0684 17.9595 34.0684 16.5223V4.85583H35.2199C36.7113 4.85583 37.5606 5.56517 37.5606 6.8905V9.54098C38.0892 8.71964 38.9576 8.10364 40.6 8.10364C42.6955 8.10364 44.5267 9.70898 44.5267 12.4903V18.6688H43.1486Z" fill="white"/>
<path d="M51.9083 8.12231C54.74 8.12231 57.2884 10.2503 57.2884 13.4235C57.2884 16.7835 55.2306 18.9488 51.6438 18.9488C48.6801 18.9488 46.2637 16.7836 46.2637 13.7596C46.2637 10.3623 48.6423 8.12231 51.9083 8.12231ZM51.6817 10.9223C50.7001 10.9223 49.8128 11.949 49.8128 13.349C49.8128 15.3276 50.6057 16.1863 51.8705 16.1863C53.0032 16.1863 53.7393 15.1596 53.7393 13.741C53.7393 11.893 52.9277 10.9223 51.6817 10.9223Z" fill="white"/>
<path d="M67.9732 18.6688C66.3876 18.6688 65.8966 18.1461 65.8966 16.5781V12.9756C65.8966 11.5945 65.4246 10.9785 64.2164 10.9785C63.1781 10.9785 62.6118 11.6692 62.6118 12.9198V18.669H61.4036C59.8744 18.669 59.0249 18.0716 59.0249 16.5783V12.9756C59.0249 10.0263 61.0069 8.10382 64.3106 8.10382C67.9919 8.10382 69.4832 10.0265 69.4832 13.0692V18.669H67.9732V18.6688Z" fill="white"/>
<path d="M76.3179 14.805H74.7701C74.9776 15.8317 75.8271 16.317 77.3187 16.317C78.9799 16.317 80.0182 16.0557 80.6035 15.6637H80.7356V16.485C80.7356 17.7917 79.6595 18.9677 76.6959 18.9677C73.109 18.9677 71.2212 16.5783 71.2212 13.741C71.2212 10.6237 73.3544 8.08521 76.5637 8.08521C79.2822 8.08521 81.3965 9.59721 81.3965 12.2105C81.3962 14.2637 79.8293 14.805 76.3179 14.805ZM76.5635 10.7357C75.2987 10.7357 74.7701 11.5383 74.6757 12.5277H76.0727C77.7717 12.5277 78.0738 12.2663 78.0738 11.8183C78.0738 11.2957 77.6018 10.7357 76.5635 10.7357Z" fill="white"/>
<path d="M90.98 15.9621C88.0728 21.4874 87.3366 22.0474 85.1658 22.0474C84.0142 22.0474 83.0514 21.4314 83.0514 20.2741V19.4153L84.5992 19.3033C85.5431 19.2286 85.9773 18.8553 86.3549 18.0153C84.8635 15.8126 82.9568 11.1461 82.5415 8.40192H84.4104C85.2977 8.40192 86.2227 8.94325 86.4302 9.85792C86.7889 11.4819 87.5063 13.4606 88.0537 14.7113C88.8277 13.1619 89.6395 10.3993 89.866 8.40192H91.5839C92.6222 8.40192 93.1131 8.88725 93.1131 9.70858C93.1133 10.7916 92.1316 13.7783 90.98 15.9621Z" fill="white"/>
<path d="M104.906 16.5223C104.925 16.8396 104.925 17.1943 104.925 17.5676C104.925 20.069 102.773 22.0663 99.4879 22.0663C96.524 22.0663 95.3725 20.7596 95.3725 19.453V18.3516H95.4857C96.1276 18.9305 97.3358 19.2663 99.0159 19.2663C100.526 19.2663 101.338 18.445 101.338 17.3436C101.338 17.1756 101.3 16.933 101.3 16.7463V16.3918C101.074 17.045 100.243 17.6798 99.2047 17.6798C96.5807 17.6798 94.4663 16.3732 94.4663 13.1812C94.4663 10.3625 96.7128 8.10382 100.243 8.10382C103.396 8.10382 104.868 9.91449 104.868 12.7145V15.4212C104.868 15.6634 104.887 16.037 104.906 16.5223ZM98.0343 12.845C98.0343 14.3756 98.7519 14.9356 99.8279 14.9356C100.828 14.9356 101.376 14.1703 101.376 13.013C101.376 11.501 100.809 10.9596 99.7333 10.9596C98.6573 10.9596 98.0343 11.6503 98.0343 12.845Z" fill="white"/>
<path d="M111.413 18.9488C109.412 18.9488 106.977 18.0156 106.977 15.6821C106.977 13.405 108.638 12.2475 112.413 12.2475H112.923V11.8181C112.923 10.9781 112.262 10.7728 110.847 10.7728C108.902 10.7728 108.185 11.2208 107.449 11.8928H107.354V10.6421C107.354 9.37298 108.695 8.10345 111.659 8.10345C114.528 8.10345 116.397 9.54079 116.397 12.5648V14.1515C116.397 17.885 115.189 18.9488 111.413 18.9488ZM112.999 14.4503H112.281C110.922 14.4503 110.375 14.7861 110.375 15.477C110.375 16.1301 110.79 16.4663 111.791 16.4663C112.432 16.4663 112.999 16.149 112.999 15.2156V14.4503Z" fill="white"/>
<path d="M120.21 7.82367C119.172 7.82367 118.323 7.03966 118.323 6.069C118.323 5.09833 119.172 4.31433 120.21 4.31433C121.249 4.31433 122.079 5.09833 122.079 6.069C122.079 7.03966 121.249 7.82367 120.21 7.82367ZM121.91 18.8181C120.003 18.8181 118.512 17.885 118.512 15.4583V8.71967H119.399C121.438 8.71967 122.099 9.29833 122.099 11.165V14.9355C122.099 15.8501 122.533 16.1301 123.533 16.1301H123.968V17.1755C123.967 18.4077 123.023 18.8181 121.91 18.8181Z" fill="white"/>
<path d="M134.4 18.6688C132.815 18.6688 132.324 18.1461 132.324 16.5781V12.9756C132.324 11.5945 131.852 10.9785 130.644 10.9785C129.605 10.9785 129.039 11.6692 129.039 12.9198V18.669H127.831C126.302 18.669 125.452 18.0716 125.452 16.5783V12.9756C125.452 10.0263 127.434 8.10382 130.738 8.10382C134.419 8.10382 135.91 10.0265 135.91 13.0692V18.669H134.4V18.6688Z" fill="white"/>
<path d="M8.41213 14.3294C7.75178 14.9296 6.93077 15.3555 6.02539 15.5389C6.96429 16.4138 8.15766 17.1321 9.58759 17.6827C9.03665 16.4338 8.75656 15.2197 8.74751 14.0475L8.41213 14.3294Z" fill="white"/>
<path d="M10.4927 12.5808C10.0558 14.3277 10.4574 16.2589 11.6868 18.3317C12.5995 18.5536 13.5806 18.7237 14.6276 18.8395C13.1274 17.1132 12.3722 15.2627 12.3855 13.3179C12.3925 12.3141 12.6044 11.38 12.9224 10.5387L10.4927 12.5808Z" fill="white"/>
<path d="M18.1943 7.28991C18.0084 7.28991 17.8067 7.28953 17.5906 7.28915L17.0712 7.28839C17.0406 7.31411 13.9821 9.91277 13.9586 13.3286C13.945 15.3139 14.9705 17.2232 17.0025 19.0059C17.3927 19.0189 17.7896 19.0259 18.1943 19.0259C21.4666 19.0259 24.1288 16.3935 24.1288 13.1579C24.1288 9.9223 21.4666 7.28991 18.1943 7.28991ZM19.2983 13.2802C18.2257 13.2802 17.3561 12.4204 17.3561 11.3598C17.3561 10.2992 18.2257 9.43944 19.2983 9.43944C20.3709 9.43944 21.2404 10.2992 21.2404 11.3598C21.2406 12.4204 20.3711 13.2802 19.2983 13.2802Z" fill="white"/>
<path d="M18.8064 11.4897C19.1509 11.4897 19.4301 11.2136 19.4301 10.873C19.4301 10.5324 19.1509 10.2562 18.8064 10.2562C18.4619 10.2562 18.1826 10.5324 18.1826 10.873C18.1826 11.2136 18.4619 11.4897 18.8064 11.4897Z" fill="white"/>
<path d="M7.37015 13.1637L7.39346 13.144L14.3401 7.30614L5.27506 7.27547L5.23692 7.27528L5.19878 7.27338C5.1379 7.27033 5.07645 7.26862 5.01577 7.26862C3.18343 7.26862 1.67337 8.68785 1.57821 10.4997C1.47939 12.3762 2.94322 13.9823 4.84086 14.0799C4.90135 14.0829 4.96261 14.0846 5.0229 14.0846C5.88301 14.0846 6.70865 13.7648 7.34762 13.1842L7.37015 13.1637Z" fill="white"/>
<path d="M3.88807 15.5115C3.88788 15.5115 3.88769 15.5113 3.8875 15.5113L1.4917 19.514L6.45531 17.8408C5.45361 17.1936 4.58734 16.4212 3.88807 15.5115Z" fill="white"/>
<path d="M17.6802 5.73374C17.8616 5.73412 18.0354 5.73431 18.1945 5.73431C18.568 5.73431 18.9348 5.76231 19.2937 5.81431C19.5851 4.84098 20.0898 4.00517 20.8147 3.3204C21.1505 3.43945 21.529 3.44574 21.8881 3.30936C22.6844 3.00707 23.082 2.12364 22.7763 1.3364C22.4706 0.549167 21.5774 0.155833 20.781 0.458119C20.0885 0.720976 19.6982 1.42326 19.8092 2.11964C18.7541 3.08936 18.035 4.31031 17.6802 5.73374Z" fill="white"/>
<path d="M26.2622 2.9315C25.5446 2.74617 24.8134 3.09188 24.4931 3.7216C22.8148 3.93303 21.3094 4.69398 20.0596 5.96522C20.6317 6.10979 21.1769 6.32065 21.6879 6.58674C22.5503 5.86598 23.5247 5.42731 24.6027 5.27664C24.8055 5.56693 25.1093 5.78998 25.4815 5.88617C26.3067 6.09931 27.1504 5.61055 27.366 4.79474C27.5816 3.97893 27.0875 3.14464 26.2622 2.9315Z" fill="white"/>
</svg>
